<svg width="111" height="36" viewBox="0 0 111 36" fill="none" xmlns="http://www.w3.org/2000/svg">
<path d="M17.3057 0.0615234C17.7183 0.0615234 18.0778 0.205102 18.3828 0.492188L23.7656 5.875C24.0704 6.17988 24.2225 6.53875 24.2227 6.95117V20.1396C24.2226 20.5701 24.0704 20.9288 23.7656 21.2158L18.3828 26.5986C18.0778 26.9037 17.7183 27.0566 17.3057 27.0566H11.1963V35.2656C11.1962 35.714 10.9719 35.9385 10.5234 35.9385H0.672852C0.224382 35.9385 9.76776e-05 35.714 0 35.2656V0.734375C1.9387e-05 0.285846 0.224303 0.0615244 0.672852 0.0615234H17.3057ZM36.9648 0.0615234C37.4134 0.0615234 37.6377 0.285845 37.6377 0.734375V35.2656C37.6376 35.714 37.4133 35.9385 36.9648 35.9385H27.1143C26.6658 35.9385 26.4415 35.714 26.4414 35.2656V0.734375C26.4414 0.285846 26.6657 0.0615244 27.1143 0.0615234H36.9648ZM50.4219 0.0615234C50.8704 0.0615234 51.0947 0.285845 51.0947 0.734375V13.9229H53.3555V0.734375C53.3555 0.285865 53.5798 0.0615444 54.0283 0.0615234H63.8789C64.3275 0.0615234 64.5517 0.285845 64.5518 0.734375V14.4873C64.5518 14.6487 64.5433 14.7924 64.5254 14.918C64.5074 15.0256 64.4258 15.1514 64.2822 15.2949L60.7031 18.9014V19.8438L64.2021 23.3428C64.3454 23.4682 64.4263 23.5934 64.4443 23.7188C64.4623 23.8443 64.4707 23.9881 64.4707 24.1494V35.2656C64.4706 35.714 64.2463 35.9385 63.7979 35.9385H53.9209C53.4724 35.9385 53.2481 35.714 53.248 35.2656V24.6885H51.2021V35.2656C51.202 35.714 50.9778 35.9385 50.5293 35.9385H40.6523C40.2039 35.9385 39.9796 35.714 39.9795 35.2656V24.1494C39.9795 23.9881 39.9879 23.8443 40.0059 23.7188C40.0418 23.5934 40.1227 23.4682 40.248 23.3428L43.7471 19.8438V18.9014L40.168 15.2949C40.0424 15.1514 39.9617 15.0256 39.9258 14.918C39.9079 14.7924 39.8984 14.6487 39.8984 14.4873V0.734375C39.8985 0.285846 40.1227 0.0615244 40.5713 0.0615234H50.4219ZM77.3359 0.0615234C77.7845 0.0615234 78.0088 0.285845 78.0088 0.734375V25.1729H82.5576C83.006 25.173 83.2305 25.3972 83.2305 25.8457V35.2656C83.2304 35.7139 83.0059 35.9384 82.5576 35.9385H67.4854C67.0369 35.9385 66.8126 35.714 66.8125 35.2656V0.734375C66.8125 0.285846 67.0368 0.0615244 67.4854 0.0615234H77.3359ZM102.591 0.0615234C103.057 0.0615234 103.417 0.177876 103.668 0.411133L109.857 6.54785C110.055 6.72728 110.181 6.88026 110.234 7.00586C110.288 7.13142 110.315 7.33736 110.315 7.62402V14.999C110.315 15.2323 110.162 15.5016 109.857 15.8066L106.144 19.5205L105.552 20.0586L107.221 22.5615L110.585 29.0215C110.675 29.1829 110.728 29.3445 110.746 29.5059C110.782 29.6494 110.8 29.8381 110.8 30.0713V35.2656C110.8 35.714 110.575 35.9385 110.127 35.9385H101.622C101.227 35.9385 100.958 35.759 100.814 35.4004L97.1279 25.9258H96.6699V35.2656C96.6698 35.714 96.4455 35.9385 95.9971 35.9385H86.1465C85.698 35.9385 85.4737 35.714 85.4736 35.2656V0.734375C85.4737 0.285846 85.6979 0.0615244 86.1465 0.0615234H102.591ZM11.8691 11.0967C11.1515 11.0967 10.5593 11.3295 10.0928 11.7959C9.6442 12.2445 9.41992 12.8282 9.41992 13.5459C9.41999 14.2635 9.64427 14.8558 10.0928 15.3223C10.5593 15.7887 11.1515 16.0215 11.8691 16.0215C12.6047 16.0215 13.197 15.7887 13.6455 15.3223C14.112 14.8558 14.3456 14.2635 14.3457 13.5459C14.3457 12.8282 14.112 12.2445 13.6455 11.7959C13.197 11.3295 12.6047 11.0967 11.8691 11.0967ZM97.8809 9.75098C97.1632 9.75102 96.571 9.98373 96.1045 10.4502C95.6559 10.8988 95.4316 11.4825 95.4316 12.2002C95.4317 12.9178 95.656 13.5101 96.1045 13.9766C96.571 14.443 97.1633 14.6757 97.8809 14.6758C98.6164 14.6758 99.2087 14.4429 99.6572 13.9766C100.124 13.5101 100.357 12.9178 100.357 12.2002C100.357 11.4825 100.124 10.8988 99.6572 10.4502C99.2087 9.98383 98.6164 9.75098 97.8809 9.75098Z" fill="url(#paint0_linear_33_20)"/>
<defs>
<linearGradient id="paint0_linear_33_20" x1="110.8" y1="18.304" x2="1.19205e-06" y2="18.304" gradientUnits="userSpaceOnUse">
<stop stop-color="#A48EC3"/>
<stop offset="1" stop-color="#5C27FE"/>
</linearGradient>
</defs>
</svg>
