<svg width="111" height="37" viewBox="0 0 111 37" fill="none" xmlns="http://www.w3.org/2000/svg">
<path d="M17.3057 0.261719C17.7183 0.261719 18.0778 0.405298 18.3828 0.692383L23.7656 6.0752C24.0704 6.38008 24.2225 6.73895 24.2227 7.15137V20.3398C24.2226 20.7703 24.0704 21.129 23.7656 21.416L18.3828 26.7988C18.0778 27.1039 17.7183 27.2568 17.3057 27.2568H11.1963V35.4658C11.1962 35.9142 10.9719 36.1387 10.5234 36.1387H0.672852C0.224382 36.1387 9.76776e-05 35.9142 0 35.4658V0.93457C1.9387e-05 0.486041 0.224303 0.26172 0.672852 0.261719H17.3057ZM36.9648 0.261719C37.4134 0.261719 37.6377 0.48604 37.6377 0.93457V35.4658C37.6376 35.9142 37.4133 36.1387 36.9648 36.1387H27.1143C26.6658 36.1387 26.4415 35.9142 26.4414 35.4658V0.93457C26.4414 0.486041 26.6657 0.26172 27.1143 0.261719H36.9648ZM50.4219 0.261719C50.8704 0.261719 51.0947 0.48604 51.0947 0.93457V14.123H53.3555V0.93457C53.3555 0.486061 53.5798 0.26174 54.0283 0.261719H63.8789C64.3275 0.261719 64.5517 0.48604 64.5518 0.93457V14.6875C64.5518 14.8489 64.5433 14.9926 64.5254 15.1182C64.5074 15.2258 64.4258 15.3516 64.2822 15.4951L60.7031 19.1016V20.0439L64.2021 23.543C64.3454 23.6684 64.4263 23.7936 64.4443 23.9189C64.4623 24.0445 64.4707 24.1883 64.4707 24.3496V35.4658C64.4706 35.9142 64.2463 36.1387 63.7979 36.1387H53.9209C53.4724 36.1387 53.2481 35.9142 53.248 35.4658V24.8887H51.2021V35.4658C51.202 35.9142 50.9778 36.1387 50.5293 36.1387H40.6523C40.2039 36.1387 39.9796 35.9142 39.9795 35.4658V24.3496C39.9795 24.1883 39.9879 24.0445 40.0059 23.9189C40.0418 23.7936 40.1227 23.6684 40.248 23.543L43.7471 20.0439V19.1016L40.168 15.4951C40.0424 15.3516 39.9617 15.2258 39.9258 15.1182C39.9079 14.9926 39.8984 14.8489 39.8984 14.6875V0.93457C39.8985 0.486041 40.1227 0.26172 40.5713 0.261719H50.4219ZM77.3359 0.261719C77.7845 0.261719 78.0088 0.48604 78.0088 0.93457V25.373H82.5576C83.006 25.3732 83.2305 25.5974 83.2305 26.0459V35.4658C83.2304 35.9141 83.0059 36.1386 82.5576 36.1387H67.4854C67.0369 36.1387 66.8126 35.9142 66.8125 35.4658V0.93457C66.8125 0.486041 67.0368 0.26172 67.4854 0.261719H77.3359ZM102.591 0.261719C103.057 0.261719 103.417 0.378072 103.668 0.611328L109.857 6.74805C110.055 6.92747 110.181 7.08046 110.234 7.20605C110.288 7.33161 110.315 7.53755 110.315 7.82422V15.1992C110.315 15.4325 110.162 15.7018 109.857 16.0068L106.144 19.7207L105.552 20.2588L107.221 22.7617L110.585 29.2217C110.675 29.383 110.728 29.5447 110.746 29.7061C110.782 29.8496 110.8 30.0383 110.8 30.2715V35.4658C110.8 35.9142 110.575 36.1387 110.127 36.1387H101.622C101.227 36.1386 100.958 35.9592 100.814 35.6006L97.1279 26.126H96.6699V35.4658C96.6698 35.9142 96.4455 36.1387 95.9971 36.1387H86.1465C85.698 36.1387 85.4737 35.9142 85.4736 35.4658V0.93457C85.4737 0.486041 85.6979 0.26172 86.1465 0.261719H102.591ZM11.8691 11.2969C11.1515 11.2969 10.5593 11.5297 10.0928 11.9961C9.6442 12.4447 9.41992 13.0284 9.41992 13.7461C9.41999 14.4637 9.64427 15.056 10.0928 15.5225C10.5593 15.9889 11.1515 16.2217 11.8691 16.2217C12.6047 16.2217 13.197 15.9889 13.6455 15.5225C14.112 15.056 14.3456 14.4637 14.3457 13.7461C14.3457 13.0284 14.112 12.4447 13.6455 11.9961C13.197 11.5297 12.6047 11.2969 11.8691 11.2969ZM97.8809 9.95117C97.1632 9.95122 96.571 10.1839 96.1045 10.6504C95.6559 11.099 95.4316 11.6827 95.4316 12.4004C95.4317 13.118 95.656 13.7103 96.1045 14.1768C96.571 14.6432 97.1633 14.8759 97.8809 14.876C98.6164 14.876 99.2087 14.6431 99.6572 14.1768C100.124 13.7103 100.357 13.118 100.357 12.4004C100.357 11.6827 100.124 11.099 99.6572 10.6504C99.2087 10.184 98.6164 9.95117 97.8809 9.95117Z" fill="white"/>
</svg>
